<svg xmlns="http://www.w3.org/2000/svg" xmlns:xlink="http://www.w3.org/1999/xlink" width="250" zoomAndPan="magnify" viewBox="0 0 187.5 74.999997" height="100" preserveAspectRatio="xMidYMid meet" version="1.0"><defs><g/><clipPath id="e99d8c7412"><path d="M 1.871094 0.101562 L 82.4375 0.101562 L 82.4375 73.597656 L 1.871094 73.597656 Z M 1.871094 0.101562 " clip-rule="nonzero"/></clipPath><clipPath id="b28bb6f480"><path d="M 20.625 31.453125 L 63.375 31.453125 L 63.375 74.203125 L 20.625 74.203125 Z M 20.625 31.453125 " clip-rule="nonzero"/></clipPath></defs><g clip-path="url(#e99d8c7412)"><path fill="#38b6ff" d="M 80.984375 36.695312 L 45.722656 1.5625 C 43.769531 -0.386719 40.542969 -0.386719 38.597656 1.5625 L 3.328125 36.695312 C 1.382812 38.636719 1.382812 41.859375 3.328125 43.800781 C 5.28125 45.75 8.5 45.75 10.453125 43.800781 L 14.78125 39.488281 L 14.78125 67.59375 C 14.78125 70.890625 17.492188 73.597656 20.796875 73.597656 L 63.433594 73.597656 C 66.746094 73.597656 69.457031 70.890625 69.457031 67.59375 L 69.457031 39.574219 L 73.78125 43.886719 C 74.796875 44.902344 76.070312 45.332031 77.34375 45.332031 C 78.609375 45.332031 79.96875 44.816406 80.898438 43.886719 C 82.9375 41.9375 82.9375 38.722656 80.984375 36.695312 " fill-opacity="1" fill-rule="nonzero"/></g><g clip-path="url(#b28bb6f480)"><path fill="#ffde59" d="M 53.8125 31.453125 C 51.855469 31.453125 50.988281 32.054688 50.046875 32.753906 C 48.523438 32.601562 46.789062 33.210938 45.910156 34.824219 C 45.222656 36.082031 43.96875 38.375 43.8125 40.027344 C 43.789062 40.132812 43.78125 40.238281 43.78125 40.34375 C 43.78125 40.351562 43.78125 40.355469 43.78125 40.359375 C 43.78125 40.597656 43.824219 40.824219 43.914062 41.042969 C 44.003906 41.257812 44.132812 41.453125 44.300781 41.617188 C 44.46875 41.785156 44.660156 41.914062 44.878906 42.003906 C 45.097656 42.09375 45.324219 42.140625 45.5625 42.140625 C 43.027344 50.519531 27.75 49.300781 27.75 65.296875 L 27.75 70.402344 C 26.773438 70.144531 26.039062 69.6875 25.492188 69.082031 C 24.65625 68.152344 24.1875 66.820312 24.1875 65.296875 C 24.1875 65.054688 24.144531 64.824219 24.054688 64.601562 C 23.964844 64.378906 23.832031 64.183594 23.664062 64.011719 C 23.492188 63.839844 23.296875 63.710938 23.074219 63.621094 C 22.847656 63.53125 22.617188 63.488281 22.375 63.492188 C 22.140625 63.496094 21.914062 63.542969 21.699219 63.636719 C 21.480469 63.730469 21.289062 63.863281 21.125 64.03125 C 20.960938 64.199219 20.835938 64.394531 20.75 64.613281 C 20.660156 64.832031 20.621094 65.0625 20.625 65.296875 C 20.625 67.554688 21.324219 69.785156 22.851562 71.472656 C 24.375 73.160156 26.722656 74.203125 29.53125 74.203125 L 33.09375 74.203125 L 33.09375 72.421875 C 33.09375 65.296875 36.652344 63.515625 38.636719 62.5 C 37.4375 61.683594 36.65625 60.457031 36.65625 59.0625 C 36.65625 58.394531 36.84375 57.761719 37.164062 57.191406 C 36.933594 56.449219 36.652344 54.554688 36.65625 52.828125 C 38.855469 52.828125 40.5 54.808594 40.5 54.808594 C 40.976562 54.691406 41.472656 54.609375 42 54.609375 C 42.523438 54.609375 43.019531 54.691406 43.496094 54.808594 C 43.496094 54.808594 44.746094 52.828125 47.34375 52.828125 C 47.34375 54.554688 47.0625 56.449219 46.835938 57.191406 C 47.152344 57.761719 47.34375 58.394531 47.34375 59.0625 C 47.34375 60.554688 46.453125 61.867188 45.097656 62.675781 C 45.359375 63.464844 45.5625 66.136719 45.5625 67.078125 C 45.5625 68.761719 45.125 70.492188 44.878906 71.546875 C 45.300781 72.015625 45.5625 72.632812 45.5625 73.3125 L 45.5625 74.203125 L 56.25 74.203125 C 57.234375 74.203125 58.03125 73.40625 58.03125 72.421875 C 58.03125 71.4375 57.234375 70.640625 56.25 70.640625 L 55.535156 70.640625 L 52.863281 57.277344 C 53.851562 56.054688 54.46875 54.523438 54.46875 52.828125 C 54.46875 43.882812 54.949219 42.140625 57.554688 42.140625 L 58.921875 42.140625 C 59.402344 42.140625 59.851562 42.015625 60.269531 41.769531 C 60.6875 41.527344 61.011719 41.191406 61.246094 40.769531 L 61.253906 40.765625 L 61.300781 40.679688 C 61.300781 40.675781 61.300781 40.671875 61.304688 40.667969 L 63.136719 37.109375 C 63.257812 36.933594 63.335938 36.734375 63.363281 36.519531 C 63.386719 36.304688 63.363281 36.097656 63.289062 35.894531 C 63.214844 35.691406 63.101562 35.515625 62.941406 35.371094 C 62.78125 35.222656 62.597656 35.121094 62.390625 35.066406 L 62.355469 35.054688 C 62.355469 35.054688 62.351562 35.054688 62.351562 35.054688 L 58.03125 33.742188 C 58.03125 33.742188 57.15625 31.453125 53.8125 31.453125 Z M 39.328125 58.171875 C 39.082031 58.171875 38.871094 58.257812 38.695312 58.433594 C 38.523438 58.605469 38.4375 58.816406 38.4375 59.0625 C 38.4375 59.308594 38.523438 59.519531 38.695312 59.691406 C 38.871094 59.867188 39.082031 59.953125 39.328125 59.953125 C 39.574219 59.953125 39.78125 59.867188 39.957031 59.691406 C 40.128906 59.519531 40.21875 59.308594 40.21875 59.0625 C 40.21875 58.816406 40.128906 58.605469 39.957031 58.433594 C 39.78125 58.257812 39.574219 58.171875 39.328125 58.171875 Z M 44.671875 58.171875 C 44.425781 58.171875 44.214844 58.257812 44.039062 58.433594 C 43.867188 58.605469 43.78125 58.816406 43.78125 59.0625 C 43.78125 59.308594 43.867188 59.519531 44.039062 59.691406 C 44.214844 59.867188 44.425781 59.953125 44.671875 59.953125 C 44.917969 59.953125 45.125 59.867188 45.300781 59.691406 C 45.472656 59.519531 45.5625 59.308594 45.5625 59.0625 C 45.5625 58.816406 45.472656 58.605469 45.300781 58.433594 C 45.125 58.257812 44.917969 58.171875 44.671875 58.171875 Z M 44.671875 58.171875 " fill-opacity="1" fill-rule="nonzero"/></g><g fill="#ffffff" fill-opacity="1"><g transform="translate(94.909266, 33.262574)"><g><path d="M 9.832031 -4.183594 C 10.144531 -3.148438 10.410156 -2.222656 10.609375 -1.402344 C 10.742188 -0.777344 10.976562 -0.433594 11.332031 -0.34375 C 11.679688 -0.253906 12.101562 -0.289062 12.589844 -0.421875 C 12.921875 -0.511719 13.28125 -0.644531 13.679688 -0.835938 C 14.070312 -1.011719 14.390625 -1.234375 14.660156 -1.492188 C 14.859375 -1.667969 15.003906 -1.945312 15.070312 -2.324219 C 15.125 -2.769531 15.113281 -3.3125 15.027344 -3.96875 C 14.9375 -4.617188 14.691406 -5.605469 14.292969 -6.917969 C 13.890625 -8.230469 13.425781 -9.566406 12.867188 -10.945312 C 12.3125 -12.324219 11.699219 -13.578125 11.042969 -14.726562 C 10.386719 -15.859375 9.753906 -16.59375 9.152344 -16.925781 C 8.796875 -17.214844 8.273438 -17.417969 7.585938 -17.527344 C 6.882812 -17.640625 6.328125 -17.648438 5.90625 -17.5625 C 5.484375 -17.472656 5.117188 -17.25 4.804688 -16.90625 C 4.492188 -16.558594 4.226562 -16.214844 4.015625 -15.882812 C 3.582031 -15.214844 3.136719 -14.324219 2.679688 -13.234375 C 2.222656 -12.132812 1.800781 -10.988281 1.421875 -9.796875 C 1.046875 -8.597656 0.722656 -7.441406 0.46875 -6.304688 C 0.199219 -5.171875 0.0546875 -4.238281 0.0234375 -3.503906 C 0 -3.238281 0 -2.957031 0.0117188 -2.667969 C 0.0234375 -2.378906 0.0664062 -2.113281 0.132812 -1.855469 C 0.210938 -1.511719 0.367188 -1.246094 0.601562 -1.054688 C 0.867188 -0.835938 1.210938 -0.644531 1.625 -0.488281 C 2.035156 -0.332031 2.414062 -0.234375 2.757812 -0.179688 C 3.246094 -0.0898438 3.671875 -0.101562 4.003906 -0.210938 C 4.335938 -0.324219 4.558594 -0.691406 4.660156 -1.324219 C 4.75 -1.96875 4.871094 -2.703125 5.050781 -3.515625 C 5.714844 -3.46875 6.539062 -3.527344 7.519531 -3.671875 C 8.496094 -3.804688 9.277344 -3.980469 9.832031 -4.183594 Z M 5.582031 -5.683594 C 6.050781 -7.375 6.585938 -8.941406 7.207031 -10.386719 C 7.917969 -9.03125 8.5625 -7.597656 9.140625 -6.105469 C 7.898438 -5.804688 6.71875 -5.660156 5.582031 -5.683594 Z M 5.582031 -5.683594 "/></g></g></g><g fill="#ffffff" fill-opacity="1"><g transform="translate(110.819036, 33.262574)"><g><path d="M 1.269531 -16.046875 C 0.710938 -14.246094 0.367188 -11.933594 0.234375 -9.109375 C 0.101562 -6.285156 0.0664062 -3.871094 0.144531 -1.855469 C 0.144531 -1.566406 0.222656 -1.324219 0.355469 -1.125 C 0.488281 -0.921875 0.765625 -0.800781 1.191406 -0.757812 C 2.523438 -0.578125 3.859375 -0.421875 5.214844 -0.289062 C 6.5625 -0.15625 7.875 -0.199219 9.164062 -0.410156 C 10.1875 -0.566406 11.121094 -0.878906 11.976562 -1.324219 C 12.824219 -1.746094 13.578125 -2.335938 14.257812 -3.070312 C 14.835938 -3.703125 15.382812 -4.503906 15.871094 -5.460938 C 16.359375 -6.417969 16.539062 -7.394531 16.394531 -8.386719 C 16.171875 -9.765625 15.636719 -11.042969 14.8125 -12.210938 C 13.847656 -13.546875 12.554688 -14.648438 10.933594 -15.515625 C 9.488281 -16.269531 8.050781 -16.714844 6.605469 -16.859375 C 5.160156 -16.996094 3.714844 -17.027344 2.269531 -16.960938 C 1.78125 -16.917969 1.445312 -16.617188 1.269531 -16.046875 Z M 11.457031 -8.453125 C 11.464844 -7.953125 11.378906 -7.460938 11.175781 -6.996094 C 10.933594 -6.429688 10.464844 -6.039062 9.753906 -5.839844 C 9.042969 -5.640625 8.386719 -5.527344 7.785156 -5.503906 C 7.316406 -5.484375 6.851562 -5.515625 6.371094 -5.617188 C 5.882812 -5.714844 5.4375 -5.871094 5.050781 -6.074219 C 5.003906 -6.09375 4.972656 -6.148438 4.949219 -6.21875 C 4.90625 -6.304688 4.882812 -6.59375 4.90625 -7.105469 C 4.914062 -7.605469 4.949219 -8.152344 5.003906 -8.730469 C 5.058594 -9.308594 5.128906 -9.855469 5.203125 -10.34375 C 5.28125 -10.832031 5.359375 -11.109375 5.449219 -11.1875 C 5.628906 -11.34375 5.839844 -11.433594 6.105469 -11.457031 C 6.328125 -11.457031 6.5625 -11.445312 6.816406 -11.410156 C 7.761719 -11.289062 8.6875 -11.011719 9.585938 -10.566406 C 9.898438 -10.386719 10.175781 -10.222656 10.421875 -10.054688 C 11.066406 -9.554688 11.410156 -9.019531 11.457031 -8.453125 Z M 11.457031 -8.453125 "/></g></g></g><g fill="#ffffff" fill-opacity="1"><g transform="translate(128.251956, 33.262574)"><g><path d="M 0.855469 -9.910156 C 0.265625 -8.742188 0 -7.453125 0.0546875 -6.039062 C 0.101562 -5.058594 0.289062 -4.203125 0.644531 -3.480469 C 1 -2.726562 1.523438 -2.101562 2.191406 -1.613281 C 2.859375 -1.125 3.59375 -0.757812 4.371094 -0.488281 C 5.394531 -0.132812 6.449219 0 7.550781 -0.0898438 C 8.640625 -0.199219 9.652344 -0.523438 10.589844 -1.078125 C 11.523438 -1.625 12.367188 -2.300781 13.101562 -3.101562 C 13.589844 -3.636719 14.058594 -4.238281 14.515625 -4.914062 C 14.96875 -5.59375 15.316406 -6.296875 15.558594 -7.007812 C 15.9375 -8.1875 16.070312 -9.507812 15.960938 -10.976562 C 15.914062 -11.398438 15.835938 -11.824219 15.75 -12.257812 C 15.660156 -12.679688 15.515625 -13.089844 15.316406 -13.46875 C 15.003906 -14.046875 14.535156 -14.570312 13.9375 -15.058594 C 13.324219 -15.539062 12.710938 -15.871094 12.089844 -16.046875 C 10.800781 -16.414062 9.453125 -16.414062 8.050781 -16.039062 C 6.417969 -15.59375 4.960938 -14.804688 3.691406 -13.667969 C 3.492188 -13.492188 3.28125 -13.289062 3.082031 -13.089844 C 2.601562 -12.625 2.179688 -12.113281 1.824219 -11.578125 C 1.46875 -11.042969 1.144531 -10.488281 0.855469 -9.910156 Z M 5.203125 -7.539062 C 5.203125 -8.273438 5.40625 -8.796875 5.804688 -9.085938 C 6.207031 -9.375 6.671875 -9.496094 7.195312 -9.429688 C 7.71875 -9.363281 8.230469 -9.140625 8.730469 -8.765625 C 9.21875 -8.386719 9.566406 -7.917969 9.753906 -7.339844 C 9.910156 -6.828125 9.933594 -6.339844 9.820312 -5.871094 C 9.710938 -5.40625 9.386719 -5.039062 8.851562 -4.769531 C 8.03125 -4.347656 7.207031 -4.527344 6.40625 -5.304688 C 5.605469 -6.074219 5.203125 -6.816406 5.203125 -7.539062 Z M 5.203125 -7.539062 "/></g></g></g><g fill="#ffffff" fill-opacity="1"><g transform="translate(145.184576, 33.262574)"><g><path d="M 13.289062 -16.671875 C 12.457031 -16.847656 11.609375 -16.949219 10.742188 -16.949219 C 9.875 -16.949219 9.019531 -16.882812 8.195312 -16.75 C 7.195312 -16.582031 6.171875 -16.292969 5.105469 -15.894531 C 4.039062 -15.480469 3.09375 -14.871094 2.246094 -14.058594 C 0.554688 -12.433594 -0.0234375 -10.421875 0.488281 -8.007812 C 0.800781 -6.441406 1.433594 -5.015625 2.390625 -3.75 C 2.902344 -3.046875 3.492188 -2.457031 4.160156 -1.980469 C 4.828125 -1.5 5.539062 -1.125 6.273438 -0.835938 C 7.195312 -0.457031 8.164062 -0.222656 9.175781 -0.132812 C 9.933594 -0.0664062 10.6875 -0.0664062 11.457031 -0.132812 C 12.210938 -0.199219 12.980469 -0.433594 13.734375 -0.835938 C 14.003906 -0.96875 14.28125 -1.144531 14.570312 -1.347656 C 14.96875 -1.636719 15.4375 -2.046875 15.972656 -2.589844 C 16.503906 -3.125 16.515625 -3.671875 16.003906 -4.226562 C 15.101562 -5.160156 14.203125 -5.347656 13.3125 -4.804688 C 12.410156 -4.25 11.554688 -3.9375 10.742188 -3.859375 C 9.675781 -3.75 8.621094 -3.914062 7.597656 -4.335938 C 6.5625 -4.761719 5.882812 -5.460938 5.550781 -6.441406 C 5.082031 -7.761719 5.082031 -8.820312 5.539062 -9.621094 C 5.996094 -10.410156 6.640625 -11 7.484375 -11.378906 C 8.332031 -11.753906 9.230469 -11.957031 10.1875 -11.988281 C 11.144531 -12.023438 11.898438 -11.945312 12.457031 -11.765625 C 12.722656 -11.679688 12.992188 -11.578125 13.269531 -11.488281 C 13.546875 -11.390625 13.835938 -11.34375 14.125 -11.34375 C 14.4375 -11.34375 14.769531 -11.644531 15.113281 -12.246094 C 15.347656 -12.65625 15.503906 -13.101562 15.59375 -13.578125 C 15.671875 -14.046875 15.714844 -14.523438 15.714844 -15.003906 C 15.714844 -15.402344 15.46875 -15.757812 14.980469 -16.058594 C 14.558594 -16.304688 14.003906 -16.503906 13.289062 -16.671875 Z M 13.289062 -16.671875 "/></g></g></g><g fill="#ffffff" fill-opacity="1"><g transform="translate(162.36179, 33.262574)"><g><path d="M 4.546875 -4.683594 C 4.792969 -5.117188 5.105469 -5.417969 5.503906 -5.570312 C 5.894531 -5.726562 6.261719 -5.785156 6.617188 -5.726562 C 6.972656 -5.671875 7.261719 -5.527344 7.496094 -5.292969 C 7.730469 -5.050781 7.820312 -4.761719 7.761719 -4.425781 C 7.695312 -4.113281 7.539062 -3.816406 7.308594 -3.546875 C 7.0625 -3.269531 6.71875 -3.058594 6.25 -2.925781 C 5.503906 -2.703125 4.972656 -2.824219 4.660156 -3.3125 C 4.335938 -3.804688 4.304688 -4.257812 4.546875 -4.683594 Z M 6.828125 -8.917969 C 7.386719 -8.652344 7.707031 -8.40625 7.796875 -8.1875 C 7.875 -7.964844 7.898438 -7.820312 7.875 -7.773438 C 6.894531 -7.996094 5.984375 -8.050781 5.128906 -7.964844 C 4.257812 -7.863281 3.535156 -7.597656 2.9375 -7.164062 C 2.335938 -6.71875 1.933594 -6.382812 1.757812 -6.140625 C 1.578125 -5.894531 1.378906 -5.628906 1.179688 -5.339844 C 0.777344 -4.738281 0.578125 -4.070312 0.578125 -3.335938 C 0.578125 -2.8125 0.679688 -2.359375 0.878906 -1.96875 C 1.089844 -1.558594 1.402344 -1.210938 1.8125 -0.945312 C 2.214844 -0.679688 2.667969 -0.457031 3.160156 -0.300781 C 3.792969 -0.078125 4.460938 0.0234375 5.171875 0 C 5.859375 -0.0234375 6.507812 -0.167969 7.117188 -0.433594 C 7.386719 -0.546875 7.71875 -0.757812 8.117188 -1.054688 C 8.164062 -0.902344 8.230469 -0.746094 8.320312 -0.589844 C 8.429688 -0.367188 8.609375 -0.1875 8.84375 -0.0664062 C 8.964844 0 9.175781 0.0898438 9.476562 0.179688 C 9.765625 0.277344 10.085938 0.289062 10.445312 0.222656 C 10.800781 0.15625 11.054688 0.0429688 11.234375 -0.121094 C 11.398438 -0.277344 11.488281 -0.46875 11.488281 -0.679688 C 11.488281 -0.789062 11.476562 -0.910156 11.433594 -1.035156 C 11.390625 -1.144531 11.355469 -1.257812 11.320312 -1.367188 C 10.988281 -2.035156 10.820312 -3.035156 10.832031 -4.382812 C 10.832031 -5.605469 10.867188 -6.660156 10.933594 -7.550781 C 10.988281 -8.441406 10.789062 -9.21875 10.34375 -9.875 C 9.898438 -10.519531 9.429688 -10.953125 8.941406 -11.167969 C 8.453125 -11.378906 7.964844 -11.535156 7.453125 -11.644531 C 6.796875 -11.777344 6.128906 -11.84375 5.449219 -11.832031 C 4.9375 -11.8125 4.425781 -11.765625 3.914062 -11.6875 C 3.402344 -11.601562 2.914062 -11.433594 2.445312 -11.1875 C 2.269531 -11.097656 2.089844 -10.988281 1.925781 -10.867188 C 1.679688 -10.6875 1.402344 -10.445312 1.089844 -10.121094 C 0.777344 -9.789062 0.734375 -9.398438 0.945312 -8.941406 C 1.144531 -8.484375 1.5 -8.207031 1.992188 -8.117188 C 2.480469 -8.019531 2.914062 -8.109375 3.292969 -8.398438 C 3.671875 -8.6875 4.125 -8.875 4.671875 -8.976562 C 5.382812 -9.097656 6.09375 -9.074219 6.828125 -8.917969 Z M 10.097656 -13.714844 C 10.132812 -13.78125 10.222656 -13.992188 10.355469 -14.371094 C 10.488281 -14.746094 10.453125 -14.949219 10.253906 -14.980469 L 9.921875 -15.335938 C 9.476562 -15.792969 9.207031 -15.882812 9.109375 -15.605469 C 9.007812 -15.316406 8.785156 -15.058594 8.441406 -14.824219 C 8.152344 -14.625 7.839844 -14.492188 7.496094 -14.402344 C 7.140625 -14.3125 6.816406 -14.378906 6.515625 -14.582031 C 6.316406 -14.691406 6.074219 -14.902344 5.804688 -15.203125 C 5.550781 -15.46875 5.304688 -15.683594 5.082031 -15.835938 C 4.847656 -15.972656 4.648438 -16.046875 4.472656 -16.046875 C 4.136719 -16.046875 3.824219 -15.980469 3.535156 -15.859375 C 3.226562 -15.726562 2.949219 -15.539062 2.691406 -15.292969 C 2.425781 -15.046875 2.222656 -14.78125 2.089844 -14.515625 C 2.046875 -14.425781 1.980469 -14.191406 1.914062 -13.835938 C 1.835938 -13.480469 1.867188 -13.257812 2 -13.167969 L 2.414062 -12.800781 C 2.726562 -12.511719 2.902344 -12.421875 2.949219 -12.535156 C 2.992188 -12.632812 3.09375 -12.824219 3.246094 -13.113281 C 3.292969 -13.210938 3.390625 -13.335938 3.527344 -13.492188 C 3.660156 -13.636719 3.824219 -13.746094 4.003906 -13.824219 C 4.183594 -13.890625 4.371094 -13.9375 4.582031 -13.9375 C 4.738281 -13.9375 4.925781 -13.859375 5.148438 -13.722656 C 5.359375 -13.570312 5.605469 -13.355469 5.871094 -13.089844 C 6.117188 -12.800781 6.371094 -12.589844 6.652344 -12.457031 C 6.90625 -12.3125 7.164062 -12.246094 7.417969 -12.246094 C 7.820312 -12.246094 8.195312 -12.300781 8.550781 -12.433594 C 8.910156 -12.566406 9.230469 -12.757812 9.519531 -13.023438 C 9.742188 -13.222656 9.941406 -13.445312 10.097656 -13.714844 Z M 10.097656 -13.714844 "/></g></g></g><g fill="#ffffff" fill-opacity="1"><g transform="translate(174.246867, 33.262574)"><g><path d="M 0.910156 -6.472656 C 0.523438 -5.695312 0.34375 -4.859375 0.390625 -3.949219 C 0.410156 -3.304688 0.546875 -2.746094 0.789062 -2.269531 C 1.023438 -1.769531 1.355469 -1.355469 1.800781 -1.046875 C 2.246094 -0.734375 2.726562 -0.488281 3.257812 -0.3125 C 3.914062 -0.0898438 4.617188 0 5.371094 -0.0546875 C 6.082031 -0.121094 6.761719 -0.332031 7.386719 -0.699219 C 8.007812 -1.054688 8.5625 -1.5 9.054688 -2.023438 C 9.375 -2.367188 9.6875 -2.757812 10 -3.203125 C 10.296875 -3.648438 10.53125 -4.105469 10.6875 -4.570312 C 10.945312 -5.339844 11.03125 -6.207031 10.953125 -7.171875 C 10.886719 -7.820312 10.753906 -8.363281 10.53125 -8.796875 C 10.320312 -9.175781 10.007812 -9.519531 9.609375 -9.832031 C 9.199219 -10.144531 8.785156 -10.367188 8.386719 -10.488281 C 7.519531 -10.722656 6.617188 -10.722656 5.707031 -10.476562 C 4.617188 -10.1875 3.648438 -9.675781 2.800781 -8.929688 C 2.734375 -8.875 2.601562 -8.753906 2.390625 -8.550781 C 1.855469 -8.042969 1.355469 -7.339844 0.910156 -6.472656 Z M 3.804688 -4.925781 C 3.804688 -5.90625 4.25 -6.316406 5.136719 -6.160156 C 6.027344 -6.003906 6.585938 -5.550781 6.828125 -4.792969 C 6.929688 -4.460938 6.941406 -4.136719 6.863281 -3.824219 C 6.785156 -3.515625 6.574219 -3.28125 6.226562 -3.113281 C 5.671875 -2.847656 5.136719 -2.957031 4.605469 -3.46875 C 4.070312 -3.96875 3.804688 -4.460938 3.804688 -4.925781 Z M 3.804688 -4.925781 "/></g></g></g><g fill="#ffffff" fill-opacity="1"><g transform="translate(116.417307, 46.095726)"><g><path d="M 1.875 -0.90625 L 4.203125 -0.90625 L 4.203125 0 L 0.75 0 L 0.75 -6.890625 L 1.875 -6.890625 Z M 1.875 -0.90625 "/></g></g></g><g fill="#ffffff" fill-opacity="1"><g transform="translate(120.808714, 46.095726)"><g><path d="M 0.359375 -2.75 C 0.359375 -3.300781 0.472656 -3.785156 0.703125 -4.203125 C 0.929688 -4.628906 1.242188 -4.957031 1.640625 -5.1875 C 2.035156 -5.425781 2.46875 -5.546875 2.9375 -5.546875 C 3.375 -5.546875 3.75 -5.460938 4.0625 -5.296875 C 4.382812 -5.128906 4.640625 -4.921875 4.828125 -4.671875 L 4.828125 -5.453125 L 5.96875 -5.453125 L 5.96875 0 L 4.828125 0 L 4.828125 -0.8125 C 4.640625 -0.550781 4.378906 -0.332031 4.046875 -0.15625 C 3.722656 0.0078125 3.347656 0.09375 2.921875 0.09375 C 2.453125 0.09375 2.019531 -0.0234375 1.625 -0.265625 C 1.238281 -0.515625 0.929688 -0.851562 0.703125 -1.28125 C 0.472656 -1.71875 0.359375 -2.207031 0.359375 -2.75 Z M 4.828125 -2.734375 C 4.828125 -3.109375 4.75 -3.429688 4.59375 -3.703125 C 4.445312 -3.984375 4.242188 -4.195312 3.984375 -4.34375 C 3.734375 -4.488281 3.46875 -4.5625 3.1875 -4.5625 C 2.894531 -4.5625 2.617188 -4.488281 2.359375 -4.34375 C 2.109375 -4.207031 1.90625 -4 1.75 -3.71875 C 1.601562 -3.445312 1.53125 -3.125 1.53125 -2.75 C 1.53125 -2.375 1.601562 -2.046875 1.75 -1.765625 C 1.90625 -1.484375 2.109375 -1.265625 2.359375 -1.109375 C 2.617188 -0.960938 2.894531 -0.890625 3.1875 -0.890625 C 3.46875 -0.890625 3.734375 -0.960938 3.984375 -1.109375 C 4.242188 -1.253906 4.445312 -1.46875 4.59375 -1.75 C 4.75 -2.03125 4.828125 -2.359375 4.828125 -2.734375 Z M 4.828125 -2.734375 "/></g></g></g><g fill="#ffffff" fill-opacity="1"><g transform="translate(127.514516, 46.095726)"><g><path d="M 1.875 -4.671875 C 2.039062 -4.941406 2.257812 -5.15625 2.53125 -5.3125 C 2.800781 -5.46875 3.125 -5.546875 3.5 -5.546875 L 3.5 -4.375 L 3.21875 -4.375 C 2.78125 -4.375 2.445312 -4.257812 2.21875 -4.03125 C 1.988281 -3.8125 1.875 -3.425781 1.875 -2.875 L 1.875 0 L 0.75 0 L 0.75 -5.453125 L 1.875 -5.453125 Z M 1.875 -4.671875 "/></g></g></g><g fill="#ffffff" fill-opacity="1"><g transform="translate(131.31249, 46.095726)"><g/></g></g><g fill="#ffffff" fill-opacity="1"><g transform="translate(133.884034, 46.095726)"><g><path d="M 3.109375 0.09375 C 2.597656 0.09375 2.132812 -0.0195312 1.71875 -0.25 C 1.300781 -0.488281 0.972656 -0.820312 0.734375 -1.25 C 0.492188 -1.675781 0.375 -2.171875 0.375 -2.734375 C 0.375 -3.285156 0.492188 -3.773438 0.734375 -4.203125 C 0.984375 -4.640625 1.316406 -4.972656 1.734375 -5.203125 C 2.160156 -5.429688 2.632812 -5.546875 3.15625 -5.546875 C 3.675781 -5.546875 4.144531 -5.429688 4.5625 -5.203125 C 4.988281 -4.972656 5.320312 -4.640625 5.5625 -4.203125 C 5.8125 -3.773438 5.9375 -3.285156 5.9375 -2.734375 C 5.9375 -2.179688 5.8125 -1.6875 5.5625 -1.25 C 5.3125 -0.820312 4.96875 -0.488281 4.53125 -0.25 C 4.101562 -0.0195312 3.628906 0.09375 3.109375 0.09375 Z M 3.109375 -0.890625 C 3.398438 -0.890625 3.671875 -0.957031 3.921875 -1.09375 C 4.179688 -1.238281 4.390625 -1.445312 4.546875 -1.71875 C 4.703125 -2 4.78125 -2.335938 4.78125 -2.734375 C 4.78125 -3.128906 4.703125 -3.460938 4.546875 -3.734375 C 4.398438 -4.015625 4.203125 -4.222656 3.953125 -4.359375 C 3.703125 -4.492188 3.429688 -4.5625 3.140625 -4.5625 C 2.847656 -4.5625 2.578125 -4.492188 2.328125 -4.359375 C 2.085938 -4.222656 1.894531 -4.015625 1.75 -3.734375 C 1.601562 -3.460938 1.53125 -3.128906 1.53125 -2.734375 C 1.53125 -2.148438 1.675781 -1.695312 1.96875 -1.375 C 2.269531 -1.050781 2.648438 -0.890625 3.109375 -0.890625 Z M 3.109375 -0.890625 "/></g></g></g><g fill="#ffffff" fill-opacity="1"><g transform="translate(140.194214, 46.095726)"><g><path d="M 3.5 -5.546875 C 3.925781 -5.546875 4.304688 -5.457031 4.640625 -5.28125 C 4.984375 -5.101562 5.25 -4.835938 5.4375 -4.484375 C 5.632812 -4.140625 5.734375 -3.71875 5.734375 -3.21875 L 5.734375 0 L 4.609375 0 L 4.609375 -3.046875 C 4.609375 -3.535156 4.488281 -3.910156 4.25 -4.171875 C 4.007812 -4.429688 3.675781 -4.5625 3.25 -4.5625 C 2.820312 -4.5625 2.484375 -4.429688 2.234375 -4.171875 C 1.992188 -3.910156 1.875 -3.535156 1.875 -3.046875 L 1.875 0 L 0.75 0 L 0.75 -5.453125 L 1.875 -5.453125 L 1.875 -4.828125 C 2.0625 -5.054688 2.296875 -5.234375 2.578125 -5.359375 C 2.867188 -5.484375 3.175781 -5.546875 3.5 -5.546875 Z M 3.5 -5.546875 "/></g></g></g><g fill="#ffffff" fill-opacity="1"><g transform="translate(146.613182, 46.095726)"><g><path d="M 1.875 -7.328125 L 1.875 0 L 0.75 0 L 0.75 -7.328125 Z M 1.875 -7.328125 "/></g></g></g><g fill="#ffffff" fill-opacity="1"><g transform="translate(149.224288, 46.095726)"><g><path d="M 1.3125 -6.1875 C 1.113281 -6.1875 0.941406 -6.253906 0.796875 -6.390625 C 0.660156 -6.523438 0.59375 -6.695312 0.59375 -6.90625 C 0.59375 -7.113281 0.660156 -7.285156 0.796875 -7.421875 C 0.941406 -7.554688 1.113281 -7.625 1.3125 -7.625 C 1.507812 -7.625 1.675781 -7.554688 1.8125 -7.421875 C 1.957031 -7.285156 2.03125 -7.113281 2.03125 -6.90625 C 2.03125 -6.695312 1.957031 -6.523438 1.8125 -6.390625 C 1.675781 -6.253906 1.507812 -6.1875 1.3125 -6.1875 Z M 1.875 -5.453125 L 1.875 0 L 0.75 0 L 0.75 -5.453125 Z M 1.875 -5.453125 "/></g></g></g><g fill="#ffffff" fill-opacity="1"><g transform="translate(151.835395, 46.095726)"><g><path d="M 3.5 -5.546875 C 3.925781 -5.546875 4.304688 -5.457031 4.640625 -5.28125 C 4.984375 -5.101562 5.25 -4.835938 5.4375 -4.484375 C 5.632812 -4.140625 5.734375 -3.71875 5.734375 -3.21875 L 5.734375 0 L 4.609375 0 L 4.609375 -3.046875 C 4.609375 -3.535156 4.488281 -3.910156 4.25 -4.171875 C 4.007812 -4.429688 3.675781 -4.5625 3.25 -4.5625 C 2.820312 -4.5625 2.484375 -4.429688 2.234375 -4.171875 C 1.992188 -3.910156 1.875 -3.535156 1.875 -3.046875 L 1.875 0 L 0.75 0 L 0.75 -5.453125 L 1.875 -5.453125 L 1.875 -4.828125 C 2.0625 -5.054688 2.296875 -5.234375 2.578125 -5.359375 C 2.867188 -5.484375 3.175781 -5.546875 3.5 -5.546875 Z M 3.5 -5.546875 "/></g></g></g><g fill="#ffffff" fill-opacity="1"><g transform="translate(158.254363, 46.095726)"><g><path d="M 5.75 -2.859375 C 5.75 -2.660156 5.734375 -2.476562 5.703125 -2.3125 L 1.53125 -2.3125 C 1.5625 -1.875 1.722656 -1.519531 2.015625 -1.25 C 2.304688 -0.988281 2.664062 -0.859375 3.09375 -0.859375 C 3.695312 -0.859375 4.125 -1.113281 4.375 -1.625 L 5.59375 -1.625 C 5.425781 -1.125 5.125 -0.710938 4.6875 -0.390625 C 4.257812 -0.0664062 3.726562 0.09375 3.09375 0.09375 C 2.570312 0.09375 2.101562 -0.0195312 1.6875 -0.25 C 1.269531 -0.488281 0.941406 -0.820312 0.703125 -1.25 C 0.472656 -1.675781 0.359375 -2.171875 0.359375 -2.734375 C 0.359375 -3.296875 0.472656 -3.789062 0.703125 -4.21875 C 0.929688 -4.644531 1.25 -4.972656 1.65625 -5.203125 C 2.070312 -5.429688 2.550781 -5.546875 3.09375 -5.546875 C 3.601562 -5.546875 4.0625 -5.429688 4.46875 -5.203125 C 4.875 -4.984375 5.1875 -4.671875 5.40625 -4.265625 C 5.632812 -3.859375 5.75 -3.390625 5.75 -2.859375 Z M 4.5625 -3.21875 C 4.5625 -3.632812 4.414062 -3.96875 4.125 -4.21875 C 3.832031 -4.46875 3.472656 -4.59375 3.046875 -4.59375 C 2.648438 -4.59375 2.3125 -4.46875 2.03125 -4.21875 C 1.757812 -3.976562 1.597656 -3.644531 1.546875 -3.21875 Z M 4.5625 -3.21875 "/></g></g></g></svg>