<svg xmlns="http://www.w3.org/2000/svg" xmlns:xlink="http://www.w3.org/1999/xlink" width="500" zoomAndPan="magnify" viewBox="0 0 375 374.999991" height="500" preserveAspectRatio="xMidYMid meet" version="1.0"><defs><clipPath id="f4b5500a6d"><path d="M 38.300781 49.6875 L 336.699219 49.6875 L 336.699219 322.683594 L 38.300781 322.683594 Z M 38.300781 49.6875 " clip-rule="nonzero"/></clipPath><clipPath id="d072f2067f"><path d="M 107.707031 165.730469 L 267.457031 165.730469 L 267.457031 325.480469 L 107.707031 325.480469 Z M 107.707031 165.730469 " clip-rule="nonzero"/></clipPath></defs><g clip-path="url(#f4b5500a6d)"><path fill="#38b6ff" d="M 331.320312 185.613281 L 200.71875 55.125 C 193.488281 47.882812 181.539062 47.882812 174.332031 55.125 L 43.707031 185.613281 C 36.5 192.828125 36.5 204.792969 43.707031 212.007812 C 50.9375 219.25 62.859375 219.25 70.089844 212.007812 L 86.117188 195.988281 L 86.117188 300.371094 C 86.117188 312.628906 96.160156 322.683594 108.398438 322.683594 L 266.3125 322.683594 C 278.578125 322.683594 288.617188 312.628906 288.617188 300.371094 L 288.617188 196.304688 L 304.644531 212.328125 C 308.40625 216.09375 313.121094 217.6875 317.835938 217.6875 C 322.523438 217.6875 327.558594 215.777344 331.003906 212.328125 C 338.550781 205.085938 338.550781 193.148438 331.320312 185.613281 " fill-opacity="1" fill-rule="nonzero"/></g><g clip-path="url(#d072f2067f)"><path fill="#ffde59" d="M 231.734375 165.730469 C 224.417969 165.730469 221.179688 167.976562 217.652344 170.589844 C 211.96875 170.023438 205.492188 172.300781 202.195312 178.324219 C 199.625 183.027344 194.945312 191.589844 194.355469 197.761719 C 194.28125 198.15625 194.242188 198.554688 194.238281 198.957031 C 194.238281 198.972656 194.238281 198.992188 194.238281 199.011719 C 194.238281 199.445312 194.28125 199.878906 194.367188 200.308594 C 194.453125 200.738281 194.578125 201.152344 194.746094 201.558594 C 194.914062 201.960938 195.117188 202.34375 195.359375 202.707031 C 195.605469 203.070312 195.878906 203.40625 196.1875 203.714844 C 196.496094 204.027344 196.835938 204.300781 197.199219 204.542969 C 197.5625 204.785156 197.945312 204.992188 198.347656 205.160156 C 198.753906 205.328125 199.167969 205.453125 199.597656 205.539062 C 200.027344 205.625 200.457031 205.667969 200.894531 205.667969 C 191.421875 236.976562 134.332031 232.417969 134.332031 292.199219 L 134.332031 311.28125 C 130.695312 310.3125 127.953125 308.601562 125.910156 306.34375 C 122.773438 302.871094 121.019531 297.890625 121.019531 292.199219 C 121.027344 291.753906 120.988281 291.3125 120.90625 290.871094 C 120.824219 290.433594 120.699219 290.011719 120.53125 289.597656 C 120.363281 289.183594 120.15625 288.792969 119.910156 288.421875 C 119.664062 288.050781 119.382812 287.710938 119.066406 287.394531 C 118.75 287.078125 118.410156 286.800781 118.035156 286.554688 C 117.664062 286.308594 117.273438 286.101562 116.859375 285.933594 C 116.449219 285.769531 116.023438 285.644531 115.585938 285.5625 C 115.148438 285.480469 114.707031 285.441406 114.261719 285.449219 C 113.824219 285.457031 113.390625 285.507812 112.964844 285.597656 C 112.539062 285.691406 112.125 285.820312 111.722656 285.996094 C 111.324219 286.167969 110.941406 286.378906 110.582031 286.625 C 110.222656 286.875 109.894531 287.15625 109.589844 287.46875 C 109.285156 287.78125 109.015625 288.121094 108.777344 288.488281 C 108.539062 288.855469 108.339844 289.242188 108.179688 289.644531 C 108.015625 290.050781 107.898438 290.46875 107.816406 290.898438 C 107.738281 291.328125 107.703125 291.761719 107.707031 292.199219 C 107.707031 300.636719 110.324219 308.964844 116.027344 315.273438 C 121.730469 321.582031 130.496094 325.480469 140.988281 325.480469 L 154.300781 325.480469 L 154.300781 318.824219 C 154.300781 292.199219 167.609375 285.539062 175.023438 281.746094 C 170.539062 278.691406 167.613281 274.105469 167.613281 268.902344 C 167.613281 266.398438 168.320312 264.042969 169.511719 261.90625 C 168.652344 259.136719 167.609375 252.054688 167.613281 245.605469 C 175.839844 245.605469 181.980469 253 181.980469 253 C 183.769531 252.5625 185.625 252.261719 187.582031 252.261719 C 189.539062 252.261719 191.394531 252.5625 193.1875 253 C 193.1875 253 197.847656 245.605469 207.550781 245.605469 C 207.558594 252.054688 206.511719 259.136719 205.652344 261.90625 C 206.84375 264.042969 207.550781 266.398438 207.550781 268.902344 C 207.550781 274.476562 204.226562 279.386719 199.167969 282.40625 C 200.136719 285.34375 200.894531 295.332031 200.894531 298.855469 C 200.894531 305.136719 199.265625 311.613281 198.347656 315.546875 C 199.917969 317.308594 200.894531 319.609375 200.894531 322.152344 L 200.894531 325.480469 L 240.832031 325.480469 C 244.515625 325.480469 247.488281 322.496094 247.488281 318.824219 C 247.488281 315.148438 244.515625 312.167969 240.832031 312.167969 L 238.167969 312.167969 L 228.183594 262.230469 C 231.871094 257.664062 234.175781 251.933594 234.175781 245.605469 C 234.175781 212.175781 235.984375 205.667969 245.707031 205.667969 L 250.816406 205.667969 C 251.703125 205.664062 252.574219 205.546875 253.429688 205.3125 C 254.285156 205.078125 255.097656 204.734375 255.859375 204.285156 C 256.625 203.835938 257.316406 203.292969 257.9375 202.65625 C 258.558594 202.023438 259.082031 201.320312 259.515625 200.542969 L 259.539062 200.53125 L 259.710938 200.207031 C 259.714844 200.191406 259.71875 200.179688 259.722656 200.167969 L 266.574219 186.867188 C 266.800781 186.539062 266.984375 186.1875 267.125 185.816406 C 267.265625 185.445312 267.363281 185.0625 267.414062 184.664062 C 267.464844 184.269531 267.464844 183.875 267.421875 183.480469 C 267.378906 183.082031 267.285156 182.699219 267.148438 182.324219 C 267.011719 181.949219 266.832031 181.597656 266.613281 181.265625 C 266.390625 180.933594 266.132812 180.632812 265.839844 180.363281 C 265.546875 180.09375 265.226562 179.863281 264.878906 179.671875 C 264.53125 179.476562 264.164062 179.328125 263.777344 179.222656 L 263.660156 179.183594 C 263.652344 179.183594 263.644531 179.183594 263.636719 179.183594 L 247.488281 174.28125 C 247.488281 174.28125 244.226562 165.730469 231.734375 165.730469 Z M 177.597656 265.574219 C 177.15625 265.574219 176.734375 265.65625 176.324219 265.824219 C 175.917969 265.996094 175.558594 266.234375 175.246094 266.546875 C 174.933594 266.859375 174.691406 267.21875 174.523438 267.625 C 174.355469 268.035156 174.269531 268.460938 174.269531 268.902344 C 174.269531 269.339844 174.355469 269.765625 174.523438 270.175781 C 174.691406 270.582031 174.933594 270.941406 175.246094 271.253906 C 175.558594 271.566406 175.917969 271.804688 176.324219 271.976562 C 176.734375 272.144531 177.15625 272.226562 177.597656 272.230469 C 178.039062 272.226562 178.464844 272.144531 178.871094 271.976562 C 179.28125 271.804688 179.640625 271.566406 179.953125 271.253906 C 180.265625 270.941406 180.503906 270.582031 180.671875 270.175781 C 180.84375 269.765625 180.925781 269.339844 180.925781 268.902344 C 180.925781 268.460938 180.84375 268.035156 180.671875 267.625 C 180.503906 267.21875 180.265625 266.859375 179.953125 266.546875 C 179.640625 266.234375 179.28125 265.996094 178.871094 265.824219 C 178.464844 265.65625 178.039062 265.574219 177.597656 265.574219 Z M 197.566406 265.574219 C 197.125 265.574219 196.703125 265.65625 196.292969 265.824219 C 195.886719 265.996094 195.527344 266.234375 195.214844 266.546875 C 194.902344 266.859375 194.660156 267.21875 194.492188 267.625 C 194.324219 268.035156 194.238281 268.460938 194.238281 268.902344 C 194.238281 269.339844 194.324219 269.765625 194.492188 270.175781 C 194.660156 270.582031 194.902344 270.941406 195.214844 271.253906 C 195.527344 271.566406 195.886719 271.804688 196.292969 271.976562 C 196.703125 272.144531 197.125 272.226562 197.566406 272.230469 C 198.007812 272.226562 198.433594 272.144531 198.839844 271.976562 C 199.25 271.804688 199.609375 271.566406 199.921875 271.253906 C 200.234375 270.941406 200.472656 270.582031 200.640625 270.175781 C 200.8125 269.765625 200.894531 269.339844 200.894531 268.902344 C 200.894531 268.460938 200.8125 268.035156 200.640625 267.625 C 200.472656 267.21875 200.234375 266.859375 199.921875 266.546875 C 199.609375 266.234375 199.25 265.996094 198.839844 265.824219 C 198.433594 265.65625 198.007812 265.574219 197.566406 265.574219 Z M 197.566406 265.574219 " fill-opacity="1" fill-rule="nonzero"/></g></svg>